#N canvas 0 0 1000 800 12;
#X declare -lib mrpeach -lib cyclone;
#X declare -path ../samples/percussion/starter;
#X text 50 20 Heartbeat Installation - Phase 1;
#X text 50 40 Audio Output: 48kHz stereo;
#X text 50 60 OSC Input: port 8000 (heartbeats from ESP32);
#X text 50 80 OSC Output: port 8001 (lighting commands);
#X obj 50 120 loadbang;
#X msg 50 150 1;
#X obj 50 180 s pd dsp;
#X obj 50 220 osc-input;
#X obj 50 280 sensor-process 0;
#X obj 150 280 sensor-process 1;
#X obj 250 280 sensor-process 2;
#X obj 350 280 sensor-process 3;
#X obj 50 340 sound-engine;
#X obj 50 400 spatial-mixer;
#X obj 50 460 lighting-output 0;
#X obj 150 460 lighting-output 1;
#X obj 250 460 lighting-output 2;
#X obj 350 460 lighting-output 3;
#X obj 50 520 dac~ 1 2;
#X connect 4 0 5 0;
#X connect 5 0 6 0;
