#N canvas 0 0 400 300 12;
#X obj 50 20 udpreceive 8000;
#X obj 50 50 unpackOSC;
#X obj 50 80 routeOSC /heartbeat/0 /heartbeat/1 /heartbeat/2 /heartbeat/3;
#X obj 50 120 s ibi-0;
#X obj 130 120 s ibi-1;
#X obj 210 120 s ibi-2;
#X obj 290 120 s ibi-3;
#X obj 50 150 print OSC-ERROR;
#X connect 0 0 1 0;
#X connect 0 1 7 0;
#X connect 1 0 2 0;
#X connect 2 0 3 0;
#X connect 2 1 4 0;
#X connect 2 2 5 0;
#X connect 2 3 6 0;
