#N canvas 0 0 600 600 12;
#X obj 50 20 r ibi-$1;
#X obj 50 50 t f f f;
#X obj 50 80 moses 300;
#X obj 20 110 print INVALID-IBI-LOW;
#X obj 80 80 moses 3001;
#X obj 110 110 print INVALID-IBI-HIGH;
#X obj 50 140 print VALID-IBI;
#X obj 50 170 s ibi-valid-$1;
#X obj 140 80 expr 60000/$f1;
#X obj 140 110 s bpm-$1;
#X obj 220 50 t b b b;
#X obj 220 80 delay 5000;
#X msg 220 110 stop;
#X obj 220 140 s sensor-disconnected-$1;
#X obj 300 20 loadbang;
#X msg 300 50 1;
#X obj 300 80 line~;
#X obj 300 110 s~ channel-gain-$1;
#X obj 350 20 r sensor-disconnected-$1;
#X msg 350 50 0 2000;
#X obj 350 80 line~;
#X obj 350 110 s~ channel-gain-$1;
#X obj 400 20 r ibi-valid-$1;
#X obj 400 50 t b f;
#X obj 425 50 r~ channel-gain-$1;
#X obj 400 80 snapshot~;
#X obj 400 110 < 0.5;
#X obj 400 140 sel 1;
#X msg 400 170 1 1000;
#X obj 400 200 line~;
#X obj 400 230 s~ channel-gain-$1;
#X connect 0 0 1 0;
#X connect 1 0 2 0;
#X connect 1 1 8 0;
#X connect 1 2 10 0;
#X connect 2 0 4 0;
#X connect 2 1 3 0;
#X connect 4 0 6 0;
#X connect 4 0 7 0;
#X connect 4 1 5 0;
#X connect 8 0 9 0;
#X connect 10 0 12 0;
#X connect 10 1 11 0;
#X connect 10 2 11 0;
#X connect 11 0 13 0;
#X connect 12 0 11 0;
#X connect 14 0 15 0;
#X connect 15 0 16 0;
#X connect 16 0 17 0;
#X connect 18 0 19 0;
#X connect 19 0 20 0;
#X connect 20 0 21 0;
#X connect 22 0 23 0;
#X connect 23 0 24 0;
#X connect 24 0 25 0;
#X connect 25 0 26 0;
#X connect 26 0 27 0;
#X connect 27 0 28 0;
#X connect 28 0 29 0;
