#N canvas 0 0 1000 700 12;
#X obj 50 20 loadbang;
#X obj 50 50 t b b b b;
#X obj 50 80 t b;
#X obj 50 110 read -resize kick-01.wav sample-0;
#X obj 50 140 soundfiler;
#X obj 50 170 s sample-0-length;
#X obj 150 80 t b;
#X obj 150 110 read -resize snare-01.wav sample-1;
#X obj 150 140 soundfiler;
#X obj 150 170 s sample-1-length;
#X obj 250 80 t b;
#X obj 250 110 read -resize hat-01.wav sample-2;
#X obj 250 140 soundfiler;
#X obj 250 170 s sample-2-length;
#X obj 350 80 t b;
#X obj 350 110 read -resize clap-01.wav sample-3;
#X obj 350 140 soundfiler;
#X obj 350 170 s sample-3-length;
#X table sample-0 0 96000;
#X table sample-1 0 96000;
#X table sample-2 0 96000;
#X table sample-3 0 96000;
#X obj 50 220 r ibi-valid-0;
#X obj 50 250 t b f;
#X obj 50 280 r sample-0-length;
#X obj 50 310 / 48000;
#X obj 50 340 * 1000;
#X obj 50 370 pack f f;
#X msg 20 400 0, $1 $2;
#X obj 50 400 line~;
#X obj 50 430 sig~;
#X obj 50 460 *~;
#X obj 50 490 tabread4~ sample-0;
#X obj 100 400 r ibi-valid-0;
#X obj 100 430 vline~;
#X obj 100 460 *~;
#X obj 50 520 s audio-out-0;
#X obj 200 220 r ibi-valid-1;
#X obj 200 250 t b f;
#X obj 200 280 r sample-1-length;
#X obj 200 310 / 48000;
#X obj 200 340 * 1000;
#X obj 200 370 pack f f;
#X msg 170 400 0, $1 $2;
#X obj 200 400 line~;
#X obj 200 430 sig~;
#X obj 200 460 *~;
#X obj 200 490 tabread4~ sample-1;
#X obj 200 520 s audio-out-1;
#X obj 350 220 r ibi-valid-2;
#X obj 350 250 t b f;
#X obj 350 280 r sample-2-length;
#X obj 350 310 / 48000;
#X obj 350 340 * 1000;
#X obj 350 370 pack f f;
#X msg 320 400 0, $1 $2;
#X obj 350 400 line~;
#X obj 350 430 sig~;
#X obj 350 460 *~;
#X obj 350 490 tabread4~ sample-2;
#X obj 350 520 s audio-out-2;
#X obj 500 220 r ibi-valid-3;
#X obj 500 250 t b f;
#X obj 500 280 r sample-3-length;
#X obj 500 310 / 48000;
#X obj 500 340 * 1000;
#X obj 500 370 pack f f;
#X msg 470 400 0, $1 $2;
#X obj 500 400 line~;
#X obj 500 430 sig~;
#X obj 500 460 *~;
#X obj 500 490 tabread4~ sample-3;
#X obj 500 520 s audio-out-3;
#X connect 0 0 1 0;
#X connect 1 0 2 0;
#X connect 1 1 6 0;
#X connect 1 2 10 0;
#X connect 1 3 14 0;
#X connect 2 0 3 0;
#X connect 3 0 4 0;
#X connect 4 0 5 0;
#X connect 6 0 7 0;
#X connect 7 0 8 0;
#X connect 8 0 9 0;
#X connect 10 0 11 0;
#X connect 11 0 12 0;
#X connect 12 0 13 0;
#X connect 14 0 15 0;
#X connect 15 0 16 0;
#X connect 16 0 17 0;
#X connect 22 0 23 0;
#X connect 23 0 24 0;
#X connect 24 0 25 0;
#X connect 25 0 26 0;
#X connect 24 0 27 0;
#X connect 26 0 27 1;
#X connect 27 0 28 0;
#X connect 27 1 31 1;
#X connect 28 0 29 0;
#X connect 29 0 30 0;
#X connect 30 0 31 0;
#X connect 31 0 32 0;
#X connect 32 0 36 0;
#X connect 33 0 34 0;
#X connect 34 0 35 0;
#X connect 35 0 36 0;
#X connect 36 0 37 0;
#X connect 35 0 38 0;
#X connect 37 0 38 1;
#X connect 38 0 39 0;
#X connect 38 1 42 1;
#X connect 39 0 40 0;
#X connect 40 0 41 0;
#X connect 41 0 42 0;
#X connect 42 0 43 0;
#X connect 43 0 44 0;
#X connect 45 0 46 0;
#X connect 46 0 47 0;
#X connect 47 0 48 0;
#X connect 48 0 49 0;
#X connect 47 0 50 0;
#X connect 49 0 50 1;
#X connect 50 0 51 0;
#X connect 50 1 54 1;
#X connect 51 0 52 0;
#X connect 52 0 53 0;
#X connect 53 0 54 0;
#X connect 54 0 55 0;
#X connect 55 0 56 0;
#X connect 57 0 58 0;
#X connect 58 0 59 0;
#X connect 59 0 60 0;
#X connect 60 0 61 0;
#X connect 59 0 62 0;
#X connect 61 0 62 1;
#X connect 62 0 63 0;
#X connect 62 1 66 1;
#X connect 63 0 64 0;
#X connect 64 0 65 0;
#X connect 65 0 66 0;
#X connect 66 0 67 0;
#X connect 67 0 68 0;
