#N canvas 0 0 1200 600 12;
#X obj 50 20 r audio-out-0;
#X obj 50 50 t a a;
#X obj 50 80 expr cos(0.0*1.5708);
#X obj 50 110 *~;
#X obj 50 140 *~;
#X obj 150 80 expr sin(0.0*1.5708);
#X obj 150 110 *~;
#X obj 150 140 *~;
#X obj 200 20 r audio-out-1;
#X obj 200 50 t a a;
#X obj 200 80 expr cos(0.33*1.5708);
#X obj 200 110 *~;
#X obj 200 140 *~;
#X obj 250 80 expr sin(0.33*1.5708);
#X obj 250 110 *~;
#X obj 250 140 *~;
#X obj 300 20 r audio-out-2;
#X obj 300 50 t a a;
#X obj 300 80 expr cos(0.67*1.5708);
#X obj 300 110 *~;
#X obj 300 140 *~;
#X obj 350 80 expr sin(0.67*1.5708);
#X obj 350 110 *~;
#X obj 350 140 *~;
#X obj 400 20 r audio-out-3;
#X obj 400 50 t a a;
#X obj 400 80 expr cos(1.0*1.5708);
#X obj 400 110 *~;
#X obj 400 140 *~;
#X obj 450 80 expr sin(1.0*1.5708);
#X obj 450 110 *~;
#X obj 450 140 *~;
#X obj 50 20 r~ channel-gain-0;
#X obj 50 170 r~ channel-gain-1;
#X obj 50 180 r~ channel-gain-2;
#X obj 50 190 r~ channel-gain-3;
#X obj 50 220 +~;
#X obj 50 250 +~;
#X obj 50 280 +~;
#X obj 50 310 clip~ -0.95 0.95;
#X obj 150 220 +~;
#X obj 150 250 +~;
#X obj 150 280 +~;
#X obj 150 310 clip~ -0.95 0.95;
#X obj 50 350 outlet~ left;
#X obj 150 350 outlet~ right;
#X connect 0 0 1 0;
#X connect 1 0 2 0;
#X connect 1 1 5 0;
#X connect 2 0 3 0;
#X connect 3 0 4 0;
#X connect 31 0 3 1;
#X connect 4 0 36 0;
#X connect 5 0 6 0;
#X connect 6 0 7 0;
#X connect 31 0 6 1;
#X connect 7 0 40 0;
#X connect 8 0 9 0;
#X connect 9 0 10 0;
#X connect 9 1 13 0;
#X connect 10 0 11 0;
#X connect 11 0 12 0;
#X connect 32 0 11 1;
#X connect 12 0 36 1;
#X connect 13 0 14 0;
#X connect 14 0 15 0;
#X connect 32 0 14 1;
#X connect 15 0 40 1;
#X connect 16 0 17 0;
#X connect 17 0 18 0;
#X connect 17 1 21 0;
#X connect 18 0 19 0;
#X connect 19 0 20 0;
#X connect 33 0 19 1;
#X connect 20 0 37 0;
#X connect 21 0 22 0;
#X connect 22 0 23 0;
#X connect 33 0 22 1;
#X connect 23 0 41 0;
#X connect 24 0 25 0;
#X connect 25 0 26 0;
#X connect 25 1 29 0;
#X connect 26 0 27 0;
#X connect 27 0 28 0;
#X connect 34 0 27 1;
#X connect 28 0 37 1;
#X connect 29 0 30 0;
#X connect 30 0 31 0;
#X connect 34 0 30 1;
#X connect 31 0 41 1;
#X connect 36 0 37 0;
#X connect 37 0 38 0;
#X connect 38 0 39 0;
#X connect 39 0 44 0;
#X connect 40 0 41 0;
#X connect 41 0 42 0;
#X connect 42 0 43 0;
#X connect 43 0 45 0;
